<?xml version="1.0" encoding="UTF-8"?>
<svg id="Camada_2" data-name="Camada 2" xmlns="http://www.w3.org/2000/svg" viewBox="0 0 1040.68 1457">
  <g id="Camada_1-2" data-name="Camada 1">
    <path d="M10.45,1351.8c1.98,1.98,3.97,0,3.97,0-1.99-5.95,5.95-9.92,7.94-15.88,0,0-1.98-1.98-3.97-1.98,5.96-3.97,1.98-11.91,7.94-15.88,3.97-3.97,3.97-11.91,11.91-15.88,5.96-1.99,29.78-35.73,33.75-41.69,1.98-3.97,3.97-5.95,9.93-1.98,0,0,1.98,1.98,3.97,0,1.99,0,3.97-3.97,7.94-1.98,0,1.98-1.98,5.95-3.97,7.94,0,5.96,0,9.93,9.93,13.9-1.98,1.98-1.98,3.97-3.97,3.97s-5.96-1.98-5.96,3.97c5.96,0,11.91-1.98,17.87-1.98h3.97c3.97,1.98,5.96,3.97,3.97,7.94,0,1.98-1.98,3.97-1.98,9.93,9.93-9.93,11.91-9.93,25.8-9.93-3.97,1.98-3.97,7.94-7.94,3.97-1.98-1.98-3.97,0-5.95,0,1.98,1.98,1.98,3.97,3.97,3.97s3.97,1.99,5.96,1.99c3.97-3.97,7.94-3.97,11.91-1.99h3.97c-3.97,5.96-7.94,9.93-11.91,13.9-1.98-3.97-3.97-5.95-5.95-5.95-3.97,0-7.94,3.97-11.91,3.97,3.97,1.98,7.94,5.95,9.93,5.95,0,0,15.88,3.97,19.85,5.96,1.98-1.98,3.97-3.97,7.94-3.97s7.94,1.98,11.91,0c1.98,0,1.98-1.99,1.98-1.99-5.96-5.95,0-7.94,3.97-9.92,0,5.95-1.99,9.92,7.94,9.92,1.99,0,5.96,1.99,7.94,3.97-7.94,3.97-15.88,5.95-27.79,11.91h13.9c5.95-3.97,3.97-1.98,5.95,1.98q0,1.99,1.99,3.97c1.98-5.96,7.94,3.97,9.93,0,1.98-11.91,11.91-9.93,19.85-11.91,3.97-1.98,7.94,0,9.93-3.97,1.98-1.98,7.94,0,3.97,3.97,3.97,1.98,5.96,1.98,7.94,1.98,1.99-1.98,15.88-11.91,19.85-11.91,1.99,0,3.97,0,3.97,1.99,5.96-5.96,15.88-5.96,15.88-17.87-7.94,0-13.9,0-21.84-1.99,9.93-3.97,19.85-5.95,27.79-9.92,7.94-3.97,11.91-9.93,19.85-11.91,5.95,0,3.97-9.92,11.91-9.92,21.83-15.88,41.69-31.76,65.51-45.66,7.94-3.97,13.9-9.92,21.83-15.88,0,0-1.98-3.97-1.98-5.95,5.95,0,31.76,0,33.75-5.95,1.98,1.98,3.97,3.97,7.94,1.98-1.98,1.98-3.97,5.95-7.94,5.95-13.9,3.97-37.72,17.87-39.7,31.76,1.98,1.98,3.97,1.98,5.95,1.98-1.98,1.98-1.98,5.95-1.98,5.95-3.97,1.98-7.94,3.97-11.91,5.96q5.96,1.98,3.97,7.94c-1.99,0-1.99,1.98-1.99,3.97-3.97-1.98-7.94,0-9.92-1.98-5.95-3.97-5.95,1.98-7.94,3.97-1.98,0-3.97-1.98-3.97-1.98h-5.95c0,7.94-3.97,7.94-9.93,7.94-3.97,0-13.89,9.92-13.89,11.91-3.97,5.96-7.94,5.96-13.89,7.94,0,1.98,0,3.97,1.98,5.95,1.98,0,5.96,0,7.94-1.98s5.96-5.95,11.91-7.94c1.98,1.98,3.97,0,7.94-1.99,3.97-1.98,9.93-5.95,13.9-7.94s7.94-1.98,11.91-3.97c1.98-1.98,5.95-5.96,11.91-11.91,1.98,1.98,3.97,5.95,7.94,5.95,1.98,1.99,5.95-1.98,7.94-3.97,7.94-5.95,17.87-11.91,25.81-19.85,5.95-1.98,7.94-5.95,11.91-11.91,1.98-1.99,3.97-1.99,5.95-1.99s5.95,1.99,7.94,0c1.98-3.97,1.98-7.94,5.96-11.91,0-1.98,5.95-1.98,5.95-1.98,1.98-3.97,11.91-3.97,3.97-9.93,1.98-1.98,3.97-3.97,5.96-3.97,7.94-1.98,17.87-3.97,27.79-3.97-5.95,11.91-19.85,11.91-27.79,21.83,9.92-1.98,17.87-3.97,25.8-5.95,1.98-5.96,19.85-15.88,27.79-19.85,0,1.99,0,3.97-1.98,5.96s-3.97,1.98-3.97,7.94l5.95-5.95c3.97-3.97,7.94-5.95,13.9-7.94,0,0,0-3.97,1.98-5.95,1.98,0,3.97,0,3.97-3.97-3.97-3.97,1.98-5.95,1.98-9.93,3.97-1.98,5.95-1.98,9.92-1.98h5.96c3.97,0,5.95,1.98,7.94,1.98s3.97,0,7.94-1.98c5.96,1.98,3.97,1.98,7.94-1.98,1.98-1.98,5.95-5.95,11.91-13.9-9.92,3.97-15.88,5.96-19.85,7.94-1.98,1.98-3.97,0-5.95-1.98l1.98-3.97c9.93,0,9.93-11.91,15.88-15.88,3.97-3.97-1.98-11.91-5.95-11.91-5.96-1.98-9.93,0-13.9,3.97-1.98,1.98-3.97,1.98-3.97,1.98-3.97,0-3.97-3.97-5.96-5.95,3.97-3.97,11.91-7.94,7.94-17.87,5.95-3.97,7.94-9.93,13.9-11.91,9.92-3.97,15.88-11.91,21.83-19.85-1.98,1.98-3.97,1.98-7.94,3.97-5.95,0-9.92,5.96-17.87,5.96,7.94-9.93,15.88-17.87,25.81-21.83,7.94-1.99,0-3.97,1.98-5.96,1.98-3.97,5.95-7.94,9.92-11.91-5.95,1.98-11.91,3.97-17.87,3.97,0-3.97-1.98-3.97-5.95-1.98-7.94,5.95-15.88,9.92-23.82,15.88-1.98,3.97-33.75,21.83-37.72,21.83,0,0-1.98,0-3.97-1.98,0,0,0-3.97,1.98-3.97,3.97-3.97,7.94-7.94,13.89-9.92,5.96-1.98,7.94-5.95,11.91-9.93,3.97-3.97,3.97-9.92,13.9-13.89,1.98-9.93,13.9-13.9,19.85-23.82-1.98-1.98-3.97-3.97-7.94-5.95,3.97-1.98,7.94-1.98,7.94-3.97,7.94-13.9,21.83-21.83,31.76-33.75,0,0,1.98-1.98,0-3.97-23.82-7.94-45.66-7.94-67.49-17.87-1.98,0-5.95,1.98-7.94,1.98-3.97,0-7.94-1.98-7.94-7.94,9.93,0,17.87,0,25.81,3.97,1.98,1.98,5.95,1.98,9.92,1.98,13.9-1.98,25.8,1.98,37.72,7.94h5.95c3.97,0,7.94,0,9.93,3.97,0,0,3.97,0,5.95-1.98,3.97-3.97,9.93-7.94,11.91-11.91,1.98-5.96,7.94-5.96,9.93-9.93,1.98-1.98,19.85-25.8,19.85-25.8,3.97-5.96,9.92-11.91,13.89-17.87,3.97-3.97,1.99-7.94-3.97-9.93-7.94,0-31.76-7.94-35.73-11.91,0,0-3.97,0-3.97,1.98,0,3.97-1.98,3.97-3.97,3.97s-3.97-1.98-5.96-1.98c5.96-1.99,5.96-9.93,11.91-11.91,0,0,1.98-3.97,0-3.97,0-3.97-5.95-5.96-9.92-5.96s-5.96,1.98-7.94,3.97c-1.98,0-1.98,1.98-3.97,3.97v-5.96c-1.98-1.98-3.97-7.94-5.95,0,0,1.99-3.97,3.97-5.96,5.96v-5.96c0-3.97-1.98-3.97-5.95-3.97-1.98,0-3.97,1.98-5.95,3.97-3.97,1.99-7.94,1.99-11.91,1.99s-7.94-1.99-11.91-3.97c1.98-5.95,7.94-5.95,11.91-5.95,1.98,0,1.98-1.98,3.97-3.97-1.98,0-3.97-1.98-5.95-1.98-1.98,3.97-7.94,3.97-11.91,3.97,0-1.98-1.98-1.98-3.97-1.98-7.94,0-15.88,3.97-21.83,5.95h-17.87c1.98-1.98,5.95-3.97,9.92-7.94h-7.94c-3.97,0-7.94,0-11.91,3.97-5.95,1.98-17.87,1.98-27.79,1.98h-3.97c-9.93,0-17.87-3.97-27.79-3.97-3.97,0-7.94,1.98-11.91,3.97-3.97,0-7.94-3.97-5.95-7.94,0-1.99-1.98-5.96-3.97-3.97-3.97,0-7.94,1.98-9.93,1.98-7.94,0-3.97,3.97-1.98,5.96,0,0,0,1.98-1.98,3.97-5.95-3.97-9.93-5.95-11.91-7.94-3.97-3.97-5.95-3.97-7.94,0-3.97,3.97-3.97,0-3.97-1.99-3.97-1.98-7.94-1.98-9.93-1.98s-5.95,0-9.92-3.97c0,0-5.96,1.98-7.94,3.97s-3.97,1.98-3.97,1.98c-3.97,0-5.95-1.98-7.94-1.98-5.95-3.97-7.94-3.97-11.91,0-1.98,1.98-5.96,1.98-9.93,1.98-1.98,1.99-3.97,0-3.97-3.97,1.98-1.98,5.95-3.97,1.98-7.94-1.98-1.98-5.95-3.97-7.94-3.97-3.97,0-5.96,1.98-7.94,1.98,0,1.98-1.99,1.98-1.99,3.97-3.97,1.98-5.95,1.98-5.95-1.98q-3.97-7.94,0-9.93c1.98,0,1.98-1.98,5.95-3.97,3.97,0,7.94,1.98,5.96-1.98-1.98-7.94-3.97,1.98-5.96,0-1.98-1.98-5.95,0-5.95-1.98-1.98-5.95-5.96,5.95-7.94-1.98-1.98,1.98-3.97,3.97-3.97,3.97-1.98,0-5.95,1.98-7.94,1.98-1.99-1.98,0-3.97,1.98-5.95v-5.96c-5.96,1.99-9.93,3.97-15.88,9.93,5.96,5.95,0,9.92-1.98,11.91-1.98,1.98-7.94,1.98-13.9,1.98v-3.97l15.88-17.86c1.98-3.97,3.97-3.97,3.97-3.97-5.95,1.98-9.93,1.98-11.91,1.98-3.97,1.99-5.96,3.97-7.94,1.99-1.98-1.99-5.95-1.99-7.94-1.99-5.95,0-11.91,3.97-17.87,3.97-1.98,1.98-3.97,3.97-5.95,0,0-1.98,1.98-3.97,1.98-7.94-5.96,0-9.93,3.97-13.9,1.98-5.95-1.98-7.94-7.94-11.91-11.91-3.97-3.97-9.93-5.96-13.89-9.93-5.96-3.97-9.93-7.94-7.94-15.88,0-3.97-1.98-1.98-3.97,0h-5.95c1.98-1.98,1.98-3.97,3.97-3.97-1.98,0-3.97-1.98-3.97-1.98-1.99,0-5.96,1.98-5.96-3.97s5.96-9.93,11.91-11.91c-7.94,0-11.91-1.98-15.88-5.95-3.97-3.97-7.94-7.94-11.91-11.91-1.98-1.98-1.98,0-3.97,0-5.96,1.98-11.91-1.98-11.91-5.95-1.98-3.97-1.98-5.96-5.95-11.91-1.98,1.98-3.97,3.97-5.96,3.97s-1.98-7.94-3.97-7.94c-7.94-3.97-41.69-61.54-43.67-77.42,0-7.94-7.94-13.9-5.96-23.82,0-7.94-1.98-17.87-3.97-25.8,0-5.96-1.98-13.9-1.98-21.83l5.95,5.95c3.97,3.97,5.96,5.95,9.93,1.98,3.97-1.98,11.91-9.93,11.91-11.91,0-5.96,1.98-11.91,5.95-15.88,3.97-3.97-1.98-5.95,0-9.92,7.94-11.91,13.9-25.81,17.87-41.68,1.98-1.99,45.66-63.52,47.64-67.49,1.98-3.97,3.97-5.96,5.95-7.94,3.97-1.99,7.94-3.97,7.94-7.94,5.96-15.88,21.83-21.83,33.75-33.75,1.98-3.97,45.66-41.68,45.66-41.68,0-3.97,27.79-25.81,31.76-27.79,11.91-5.96,19.85-15.88,29.78-23.82,11.91-9.93,25.81-19.85,39.7-29.77,5.96-3.97,11.91-5.96,15.88-11.91,5.96-3.97,13.9-1.98,17.87-9.93h3.97c1.98-11.91,11.91-7.94,17.87-11.91,1.98-1.98,5.95,0,5.95-3.97,1.98-3.97,7.94-7.94,11.91-9.92,7.94-1.98,31.76-17.87,37.72-21.84,3.97-3.97,7.94-9.92,15.88-7.94,0,1.99,1.98,0,3.97-1.98,7.94-7.94,19.85-11.91,29.77-15.88,5.96-5.95,15.88-11.91,21.84-15.88,13.89-7.94,25.8-13.9,37.72-19.85,7.94-3.97,15.88-7.94,23.82-11.91,15.88-9.93,31.76-17.87,47.64-25.81,5.95,3.97,7.94-3.97,13.89-5.95,5.96,0,9.93-3.97,13.9-5.96,3.97-3.97,7.94-7.94,11.91-7.94,1.98,0,3.97,0,5.95,1.98,0,0,1.98-1.98,3.97-1.98,1.98-1.98,3.97-3.97,5.96-3.97,7.94,1.98,15.88-5.96,23.82-7.94,5.95-1.99,15.88-3.97,21.83-9.93,11.91-3.97,23.82-11.91,35.73-17.87,7.94-3.97,13.9-9.93,23.82-11.91,7.94,0,15.88-1.98,23.82-3.97,5.95-1.98,9.92-3.97,13.89-3.97,7.94,0,21.84,15.88,25.81,21.83,5.95,11.91,13.9,21.83,21.83,31.76,9.93,13.89,21.83,23.82,29.78,37.72,1.98,0,27.79,11.91,27.79,13.9,11.91,1.98,13.9,13.9,19.85,21.83-7.94,7.94,1.99,11.91,1.99,15.88,0,5.96,5.95,9.93,1.98,15.88-1.98,1.98,0,5.95,1.98,7.94,3.97,3.97,7.94,7.94,7.94,13.9-1.98,1.98,0,3.97,1.98,5.95,1.98,3.97,5.96,7.94,9.93,11.91,7.94,7.94,5.95,15.88,1.98,23.82-3.97,13.9-47.64,69.48-65.51,69.48-7.94,0-11.91,3.97-19.85,9.93-7.94,7.94-41.68,17.87-51.61,19.85-7.94,3.97-17.87,3.97-25.8,9.93-1.98,0-3.97,1.98-5.95,1.98-17.87,7.94-43.67,21.84-57.57,33.75-5.95,0-3.97,9.93-9.92,7.94-3.97,11.91-19.85,19.85-29.78,23.82-1.98,1.98,0,9.93-5.95,3.97-5.95,3.97-9.93,9.93-15.88,13.9-3.97,1.98-9.92,1.98-15.88,3.97-1.98,0-1.98,1.98-3.97,1.98s-3.97,7.94-5.95,7.94-1.98-1.99-3.97-3.97c-3.97,3.97-5.95,7.94-9.92,9.92-3.97,1.98-7.94,3.97-11.91,5.95-3.97,1.99-7.94,5.96-11.91,7.94,0,0-3.97,0-3.97,1.99-5.95,7.94-17.87,7.94-27.79,17.87-5.96,1.98-11.91,3.97-15.88,5.95-3.97,3.97-7.94,7.94-13.9,9.92-5.95,3.97-11.91,7.94-15.88,11.91-5.95,1.98-23.82,9.93-25.8,15.88-7.94,3.97-11.91,9.93-21.83,9.93-1.98,1.98-37.72,27.79-41.69,29.77-1.98,1.99-5.95,3.97-7.94,3.97s-3.97,0-5.95-1.98c-1.98-1.99-5.96-1.99-7.94-1.99-3.97,0-33.75,21.83-35.73,25.81-5.95-1.98-5.95,5.95-9.92,7.94-1.98,1.98-33.75,23.82-33.75,23.82-3.97,5.96-9.93,5.96-13.9,11.91-1.98,1.98-3.97,1.98-5.95,3.97v3.97h5.95c5.95,0,7.94,1.98,11.91,3.97,3.97,0,5.95,1.98,7.94,1.98s3.97,0,3.97-1.98c1.98-1.98,3.97-1.98,5.96,0s3.97,1.98,7.94,1.98,7.94-1.98,11.91-5.95c3.97-1.99,7.94-1.99,11.91-1.99-1.98,1.99-3.97,3.97-5.95,5.96-3.97,3.97-1.98,7.94,0,7.94,7.94,0,9.93,5.96,15.88,7.94,5.95,0,9.93,3.97,13.9,5.95,5.95,1.98,11.91,3.97,17.87,5.95,1.98-1.98,5.95-1.98,7.94-1.98,5.96,0,13.9,5.96,19.85,7.94h11.91c1.98,0,5.95,0,11.91-3.97,1.98,7.94,63.52,19.85,79.4,21.84,7.94,1.98,17.87,3.97,25.8,5.95,0,0,1.98,1.98,1.98,3.97s0,0-1.98,0v5.96c0-1.99,1.98-1.99,1.98-5.96h7.94c1.98,0,5.95,0,7.94,1.98,1.98,3.97,7.94-3.97,11.91,0,13.9,0,23.82,7.94,35.73,7.94,3.97,0,5.95,3.97,7.94,3.97,1.99,1.98,3.97,0,5.96,0,0-1.98,0-3.97-1.98-3.97,0-1.98-1.98-1.98-3.97-3.97,3.97,0,5.96-3.97,7.94-3.97,5.95,5.96,13.9,7.94,23.82,9.93,0,1.98-1.98,3.97-5.95,5.95-3.97-5.95-7.94-5.95-13.9-5.95v13.9c0-1.98,3.97-1.98,3.97-3.97,0-3.97,3.97-3.97,5.96-1.98s3.97,1.98,3.97,1.98c1.98,0,5.95,7.94,5.95-1.98,1.98,0,3.97-1.98,5.96-1.98,3.97,0,7.94,1.98,11.91,5.96h3.97c9.93,1.98,17.87,9.92,27.79,13.89-1.98,1.98-1.98,3.97-3.97,3.97s-3.97,0-5.96-1.99c-3.97-5.95-11.91-3.97-17.87-7.94-1.98,3.97,0,3.97,1.99,3.97,0,1.98,1.98,3.97,1.98,3.97,9.92,5.96,17.87,11.91,25.8,17.87,3.97,3.97,7.94,5.96,11.91,5.96,1.98,0,3.97,0,5.95-1.98,5.95-3.97,7.94-3.97,9.92,0,7.94,5.95,13.9,13.89,21.84,19.85,5.95,5.95,11.91,11.91,17.87,17.87,5.95,1.98,9.92,9.92,13.89,13.89,1.99,1.99,25.81,25.81,25.81,27.79,0,9.92,5.95,7.94,9.92,7.94-5.95,3.97-11.91,9.93-15.88,13.9-3.97,3.97-1.99,9.93,1.98,11.91h3.97c3.97-1.98,5.95-1.98,9.92-1.98,5.96,0,11.91,1.98,17.87,1.98h3.97c0,3.97-5.96,7.94,0,7.94,5.95,1.98,5.95,5.96,7.94,9.93,3.97,1.98,5.95,1.98,1.98,7.94-3.97,3.97-3.97,9.93-5.95,15.88,0,7.94,1.98,17.87-9.93,19.85,1.98,5.96-11.91,19.85-17.87,21.83-5.95,1.99-9.92,3.97-13.89,7.94-3.97,5.95,5.95,5.95,7.94,11.91-3.97,0-7.94,1.98-9.93,3.97-1.98,0-1.98,3.97-3.97,3.97,1.98,1.98,5.96,1.98,7.94,1.98,1.98-1.98,3.97-5.95,5.95-9.92,1.98,0,3.97,0,5.95-3.97,9.93-7.94,17.87-15.88,25.81-23.82,1.98,1.98,3.97,3.97,7.94,5.95,0,1.98-1.98,1.98-3.97,1.98-3.97,1.99-1.98,3.97-5.95,5.96-3.97,3.97-7.94,11.91-3.97,15.88,0,1.98,3.97,1.98,3.97,0,1.98-3.97,1.98-7.94,3.97-13.9,1.98,0,5.95-1.98,5.95,0,1.98,3.97,0,13.9-5.95,15.88-3.97,1.98-7.94,1.98-11.91,1.98-1.98-1.98-1.98-3.97-1.98-5.95-7.94,11.91-15.88,19.85-23.82,23.82,3.97,3.97,5.95,1.98,9.92-1.98,3.97-3.97,7.94-7.94,13.9-9.93,1.98,3.97-1.98,3.97-1.98,5.96-1.98,1.98-3.97,1.98-3.97,3.97-1.98,3.97-19.85,17.87-25.81,19.85-5.95,1.98,3.97,5.95-1.98,7.94-5.95,1.98-9.92,7.94-13.9,11.91-7.94,5.95-15.88,11.91-21.83,17.87-11.91,7.94-29.77,17.87-41.68,21.83-5.95,1.98-11.91,11.91-17.87,15.88-3.97,7.94-11.91,19.85-17.87,25.8v-7.94c-9.92,5.95-23.82,11.91-33.75,15.88-3.97,1.98-5.95,1.98-7.94,3.97-7.94,9.93-17.87,11.91-31.76,15.88h-3.97c-3.97,0-5.96,1.98-11.91,5.95-5.95-1.98-5.95,9.93-13.9,3.97,0,0,0,1.99-1.98,1.99-3.97,3.97,7.94,5.95,0,7.94-3.97,1.98-1.98,5.95-1.98,7.94-1.98,1.99-5.95,3.97-5.95,0-1.98-1.98,0-3.97-5.96-1.98-9.92,1.98-15.88,5.96-23.82,11.91-7.94,3.97-15.88,7.94-23.82,11.91-7.94,3.97-23.82,17.87-27.79,23.82s-9.92,9.93-13.89,9.93c-7.94,1.98-13.9,5.95-15.88,11.91-3.97,1.98-5.96,5.95-9.93,7.94-1.98,0-3.97,1.98,0,3.97,0,1.98,1.98,1.98,1.98,1.98-1.98,1.98-3.97,7.94-7.94,3.97-3.97-3.97-3.97-1.98-7.94,1.98-3.97,3.97-9.92,7.94-13.89,11.91-5.96,5.95-5.96,9.92-7.94,15.88,0,1.98,1.98,3.97,1.98,3.97,1.98,0,3.97-1.98,3.97-1.98,0-7.94,3.97-7.94,11.91-7.94,1.98,0,1.98-3.97,5.95-5.95h3.97c7.94,1.98,9.92,1.98,11.91-3.97,0-1.98,0-3.97,1.98-5.95l3.97,1.98c9.92-11.91,19.85-23.82,31.76-31.76,1.98-1.98,9.93-1.98,3.97-7.94,13.89-1.99,21.83-9.93,29.77-15.88,1.98-1.98,3.97-1.98,5.96-1.98v5.95c-7.94,0-9.93,3.97-13.9,9.92-3.97,0-5.96,1.99-5.96,5.96-9.92,9.92-23.82,19.85-33.74,29.77-3.97,5.96-7.94,9.93-17.87,13.9,1.98,7.94-3.97,9.93-7.94,11.91-5.95,3.97-9.92,5.95-15.88,7.94-9.92,5.96-21.83,11.91-29.77,21.83-5.96,5.96-13.9,7.94-21.83,9.93,3.97,1.98,3.97,3.97,7.94,7.94-7.94,5.96-13.9,13.9-25.8,13.9-5.96,0-9.93,3.97-13.9,7.94-5.96,5.95-7.94,13.89-15.88,11.91-5.95,15.88-21.83,15.88-29.78,27.79-3.97,3.97-11.91,3.97-17.87,7.94-5.95,1.98-9.92,5.96-13.9,9.93-5.95,3.97-9.92,5.95-15.88,9.92-7.94,1.98-15.88,5.96-21.84,9.93-7.94,3.97-17.87,9.92-25.81,9.92-1.98,0-3.97,0-7.94-1.98-3.97,1.98-7.94,3.97-13.89,3.97-1.99,0-5.96-5.96-9.93-5.96h-5.95c-1.98,0-3.97,0-7.94,1.98,0,1.98-3.97,3.97-5.96,3.97q-11.91,0-21.83,9.92c-5.96-3.97,5.96-7.94-1.98-11.91,7.94-5.95,13.89-7.94,23.82-11.91h3.97c5.95-9.93,15.88-9.93,23.82-11.91,1.99,0,1.99-3.97,3.97-5.95h-3.97c-3.97,1.98-5.95,3.97-7.94,3.97s-3.97-1.98-5.95-3.97c-7.94,1.98-29.78,9.92-31.76,15.88-9.93-1.98-13.89,5.95-17.87,11.91-1.98,0-1.98,1.98-3.97,3.97,0-3.97-1.98-9.93-5.96-9.93-1.98,0-3.97,1.98-5.95,3.97h-7.94c3.97-7.94,11.91-7.94,19.85-7.94,1.98,0,5.96,0,5.96-1.98s-1.99-3.97-3.97-3.97-3.97-1.98-3.97-5.95c7.94,0,3.97-1.98,1.98-5.95l3.97-3.97c1.99,0,5.96,1.98,7.94,1.98s1.98,0,3.97-1.98c1.98-3.97,7.94-1.99,13.89-3.97,5.96,0,21.84-11.91,25.81-15.88,3.97-1.98,1.98-3.97,0-5.95s-3.97-3.97-5.96,0c-1.98,1.98-3.97,1.98-7.94,3.97-17.86,5.96-35.73,13.9-51.61,23.82l-19.85,11.91c-5.96,1.98-11.91,3.97-13.9,7.94s-5.96,3.97-7.94,3.97c-5.95,0-9.93,0-13.89,3.97-1.99,3.97-7.94,1.98-15.88,3.97,7.94-5.95,13.89-3.97,15.88-9.92,1.98-1.98,3.97-1.98,1.98-3.97s-3.97-1.98-3.97-1.98c-3.97,0-7.94,3.97-9.93,3.97h-7.94c-1.98,3.97-3.97,3.97-5.95,3.97-3.97,0-5.96-1.98-9.93-3.97q-9.93-5.96-15.88-5.96h-9.93c-1.98,0-1.98-3.97-1.98-3.97,5.95-5.95-1.99-5.95-3.97-5.95-3.97-1.98-7.94-1.98-9.93,1.98v3.97c0,1.98,0,5.96-3.97,3.97-3.97-1.98-1.98-3.97,0-5.95,1.98-5.95,0-11.91-3.97-11.91-3.97-1.98-7.94-1.98-7.94,3.97,0,0-3.97,0-5.95,1.98,0-5.96-1.98-7.94-5.96-9.93-1.98-1.98-1.98-3.97,1.98-3.97,1.99,0,3.97,0,1.99-1.98-1.99-1.98-3.97-1.98-3.97-1.98-7.94,0-11.91-1.98-13.89-7.94-1.99-7.94-3.97,0-5.96-1.98-5.96-3.97-11.91-9.92-19.85-15.88,5.95-9.92-5.96-11.91-5.96-19.85-1.98-5.95,1.98-3.97,5.96-5.95,1.98,1.98,1.98,5.95,3.97,5.95Zm3.97-11.91c-1.99,0-3.97-1.98-5.96-5.96h11.91c-1.98,3.97-3.97,5.96-5.95,5.96Zm-1.99,49.62l1.99,1.98s-1.99,0-1.99-1.98Zm11.91,7.94q5.95-1.98,5.95,5.95l-5.95-5.95Zm11.91-31.76c0-1.98-1.98-1.98-1.98-1.98,0,1.98,1.98,1.98,1.98,1.98Zm0-67.49q0-1.98,1.98-1.98,0,1.98-1.98,1.98Zm5.96,75.43c-1.99-1.98-3.97-3.97-3.97-3.97-1.98,0-1.98,1.98-1.98,1.98,0,1.98,1.98,3.97,1.98,5.96,1.98-1.98,3.97-3.97,3.97-3.97Zm3.97-25.8c-1.98,0-3.97,1.98-3.97,3.97-5.96,5.96-5.96,3.97,1.98,7.94,3.97,1.98,5.96,1.98,7.94,1.98s3.97,0,5.95-3.97c-3.97-1.99-7.94-5.96-11.91-9.93Zm7.94-33.75c3.97,5.96,0,7.94-3.97,11.91,0,1.98-1.99,1.98-1.99,1.98,0,1.98,3.97,9.93,3.97,7.94,1.98,0,1.98-1.98,1.98-3.97,1.98-1.98,1.98-7.94,3.97-7.94s1.99,1.98,5.96,3.97c0,0,3.97-1.98,3.97-3.97,1.98-1.98,3.97-3.97,5.95-5.96,0-1.98,1.98-1.98,3.97-3.97-1.99,0-3.97-1.98-3.97-1.98-3.97-3.97-3.97-5.95,0-7.94,1.98,0,3.97,0,1.98-1.98-1.98-3.97-5.95-5.96-9.93-1.99-1.98,1.99-7.94,1.99-3.97,5.96,1.98,3.97,3.97,5.95,1.98,7.94-3.97,1.98-5.96,0-5.96-3.97q0-1.98-1.98-1.98c-1.98,0-3.97,3.97-1.98,5.95Zm-3.97-37.72s1.98,0,3.97,1.98c-1.98,0-3.97,0-3.97-1.98Zm0,140.94q0-1.98,1.98-1.98c-1.98,0-1.98,1.98-1.98,1.98Zm13.89-77.42l-1.98-1.98q0,1.98,1.98,1.98Zm13.9-13.9c3.97,1.98,0,7.94,5.95,7.94,1.98,0,1.98-1.98,3.97-1.98-3.97-1.98-3.97-5.95-5.96-9.92-1.98,1.98-1.98,3.97-3.97,3.97Zm7.94,59.55c-1.98,0-3.97,1.98-5.95,5.95,0,0,7.94,3.97,11.91,3.97,0,0,1.98-1.98,5.96-1.98-5.96-3.97-7.94-5.96-11.91-7.94Zm-1.98-101.24q0-1.99-1.98-1.99c0,1.99,1.98,1.99,1.98,1.99Zm13.9,11.91l3.97-1.98c5.96,5.95,5.96,1.98,7.94-1.98h-17.87c1.98,0,0,7.94,5.96,3.97Zm1.98-29.77q1.98,0,1.98,1.98s-1.98,0-1.98-1.98Zm7.94,9.92c0,1.98-1.98,1.98-3.97,1.98,1.99-1.98,3.97-1.98,3.97-1.98Zm5.96,0q-1.99-1.98-1.99-3.97h7.94v3.97h-5.95Zm11.91,9.93c-1.98,0-3.97-1.98-5.96-3.97h3.97c1.98,0,1.98,1.99,1.98,3.97Zm1.98-611.39q0,3.97,1.98,3.97c0,1.98,1.98,0,3.97,0-1.99-1.98-3.97-3.97-5.96-3.97Zm17.87,619.33q-1.98,0-1.98-1.98s1.98,0,1.98,1.98Zm29.78,152.85c-1.98,1.98-3.97,3.97-5.95,3.97-3.97,0-7.94-3.97-9.93-3.97h15.88Zm7.94-140.94s-1.98,1.98-3.97,1.98c0-1.98,0-3.97,1.98-3.97s1.98,1.98,1.98,1.98Zm1.98,136.97c0,3.97-1.98,3.97-1.98,3.97,0-1.99,1.98-3.97,1.98-3.97Zm11.91-1.98c-1.98,5.96-5.96,1.98-9.93,1.98,1.98-5.95,5.95-1.98,9.93-1.98Zm1.98-129.03q0-1.98-1.98-1.98,1.98,0,1.98,1.98Zm7.94-9.92q1.98,0,1.98,1.98-1.98,0-1.98-1.98Zm15.88,3.97c1.98-3.97-5.96-5.96,0-7.94l11.91-3.97c1.98,0,3.97,1.98,3.97,1.98-3.97,5.96-3.97,7.94-5.95,9.93-7.94,7.94-9.93,7.94-19.85,7.94,3.97-3.97,7.94-5.95,9.93-7.94Zm-7.94,150.86q0-1.98,1.98-1.98s-1.98,0-1.98,1.98Zm9.93-164.76c-1.98,1.98-3.97,1.98-3.97,1.98v-3.97l3.97,1.98Zm7.94,125.06q1.98,0,1.98-1.98-1.98,0-1.98,1.98Zm3.97-129.03c-1.98-3.97,1.98-3.97,3.97-3.97,0,3.97-1.99,5.95-3.97,7.94v-3.97Zm37.72,31.76c-3.97,1.98-7.94,3.97-11.91,3.97s-7.94,1.98-9.93,3.97c-7.94,1.98-7.94,3.97-1.98,11.91h-3.97c-3.97,0-7.94,0-9.93,5.95,3.97,1.98,7.94,0,11.91-1.98,1.99-3.97,3.97-1.98,3.97-3.97,7.94-5.96,5.95,0,5.95,5.95,0-1.98-1.98-1.98-1.98-1.98,11.91,0,17.87-7.94,23.82-15.88,5.96-5.95,3.97-5.95,7.94-7.94,3.97,0,1.98-3.97,1.98-5.96h9.93c3.97,0,9.93-1.98,13.9-5.95,11.91,0,19.85-1.98,29.78-9.93h-9.93c-3.97,0-5.96,0-7.94,1.98h-5.96c-3.97-1.98-5.95,0-9.93,0-9.93,1.99-11.91,9.93-19.85,13.9-3.97,1.98-11.91,1.98-15.88,5.96Zm-29.78-21.84c1.98,0,3.97,0,3.97,5.96-3.97-1.98-7.94-3.97-11.91-5.96h7.94Zm-1.98-13.89c0-1.99,1.98-1.99,3.97-1.99l-3.97,1.99Zm5.95-482.36h11.91c1.98,0,3.97,1.98,7.94,1.98-5.96-5.95-9.93-7.94-15.88-7.94-1.98,0-3.97,0-7.94,1.98,1.98,1.98,3.97,1.98,3.97,3.97Zm17.87,466.48c-1.98,0-3.97-1.98-3.97-1.98,0-1.99,1.98-3.97,1.98-3.97h7.94c-1.98,3.97-3.97,5.96-5.96,5.96Zm21.84,140.94h-3.97s0,1.99,1.99,1.99c0,0,0-1.99,1.98-1.99Zm7.94-146.89q0,1.98-1.99,1.98c0-1.98,1.99-1.98,1.99-1.98Zm21.83,103.22h0Zm15.88,9.93c-3.97,1.98-5.96,5.95-9.93,11.91,0,0,1.98,1.98,3.97,1.98,3.97-1.98,7.94-3.97,11.91-5.95,0,0,1.98-1.98,5.95-11.91-1.98,1.98-1.98,3.97-3.97,5.96,3.97,0,5.95-1.98,5.95-3.97l-5.95,5.96c-1.98-1.98-5.96-3.97-7.94-3.97Zm53.59-565.73c-7.94,0-13.89,3.97-19.85,3.97q-1.98,0-3.97-1.98s-1.98,1.98-1.98,3.97c-1.98,3.97-7.94,3.97-11.91,3.97-3.97-1.98-3.97,0-3.97,3.97q0,1.98,1.98,3.97c1.98-1.98,3.97,0,7.94,0,1.98,0,3.97-3.97,5.95-3.97,5.95,3.97,1.98-3.97,3.97-3.97,3.97-1.98,3.97-5.95,9.93-1.98,3.97,0,9.92-1.98,13.89-1.98,1.99-1.98,3.97-1.98,5.96-3.97-1.98,0-5.96-1.99-7.94-1.99Zm-17.87,29.78c3.97,0,7.94-1.98,9.93-3.97s3.97-1.98,3.97-1.98c-1.98-1.98-3.97-5.96-5.95-3.97-3.97,1.99-7.94,1.99-11.91,1.99h-7.94c-1.98,0-3.97,3.97-5.96,5.95,5.96,0,11.91,1.98,17.87,1.98Zm-3.97,369.21c-1.98,3.97-3.97,3.97-5.95,5.96,0,0-1.98-1.98-7.94-1.98,3.97-1.98,7.94-1.98,13.9-3.97Zm-11.91,156.82l-1.98,3.97c1.98,1.98,3.97,3.97,3.97,1.98,3.97-1.98,11.91-1.98,13.89-7.94,1.98-1.98,3.97-1.98,5.96-1.98q-1.98-1.98-5.96,1.98c-5.95,0-9.92,1.98-15.88,1.98Zm5.96-136.97l1.98-1.99q0,1.99-1.98,1.99Zm3.97,202.47l-3.97,1.98c0-1.98,1.98-1.98,3.97-1.98Zm7.94-3.97c0,1.99-1.98,1.99-1.98,3.97,0-3.97,1.98-3.97,1.98-3.97Zm83.37-53.6c7.94,1.99,11.91-3.97,17.87-9.92h5.95c3.97,0,7.94-1.98,7.94-1.98,3.97-3.97,19.85-19.85,21.83-21.83,3.97-1.98,17.87-7.94,17.87-11.91,7.94-11.91,15.88-19.85,29.78-19.85,3.97-1.98,11.91-3.97,13.89-9.93,0-5.95,41.69-31.76,47.64-35.73,5.95-1.98,9.93-5.95,15.88-7.94,0-1.98,21.83-17.87,27.79-19.85,3.97-3.97,5.96-9.93,11.91-13.9,3.97-1.98,7.94-5.95,15.88-7.94,1.98-1.98,15.88-13.9,15.88-17.87,0,0,1.98-1.98,3.97-3.97q9.93-7.94,19.85-23.82c0-1.98,1.98-3.97,3.97-5.95,5.96-1.98,9.93-3.97,13.9-7.94,3.97-1.98,5.96-5.95,9.93-9.92-3.97,11.91-7.94,21.83-15.88,29.77-1.98,1.99-7.94-1.98-7.94,5.96,1.99,3.97-3.97,5.95-7.94,9.92-3.97,3.97-7.94,7.94-9.93,9.93,0,7.94-5.95,3.97-7.94,7.94-3.97,5.96-7.94,9.93-11.91,13.9,0,0-1.98,1.98-1.98,3.97,0-1.98,1.98-3.97,1.98-3.97,3.97,3.97,7.94,7.94,13.9,11.91-5.95,1.98-11.91,1.98-15.88,3.97s-7.94,3.97-7.94-3.97c0-3.97-1.98-3.97-5.96-1.98-1.98,1.98-3.97,5.95-5.95,7.94-9.92,9.93-21.83,19.85-31.76,27.79-5.95,3.97-11.91,5.95-17.87,9.92-1.98,1.98-7.94,3.97-7.94,7.94-1.98,3.97-3.97,3.97-7.94,3.97-3.97-1.98-1.98,9.92-9.92,7.94-3.97-1.98-3.97,3.97-5.95,7.94-9.93,5.95-19.85,13.89-29.78,15.88-7.94,3.97-13.9,5.95-17.87,13.89-1.98,7.94-9.93,9.93-15.88,11.91-19.85,11.91-39.7,27.79-55.58,43.67-9.92-1.98-11.91,3.97-17.87,7.94-3.97,3.97-9.92,5.95-13.9,9.92-3.97-5.95-5.95,3.97-9.92,1.98-1.98-1.98-5.96-1.98-9.93-1.98s-5.95,0-9.92,3.97c-1.98,5.95-5.96,7.94-11.91,5.95-1.98,0-3.97,1.98-5.95,1.98-3.97,7.94-9.93,7.94-15.88,7.94h-5.96c3.97-1.98,5.96-5.95,9.93-5.95s7.94-1.98,9.93-7.94c0-1.98,25.8-13.9,29.77-15.88,3.97,0,1.98-3.97,1.98-5.96q1.98-7.94,9.93-1.98c9.92,0,15.88-5.95,21.83-11.91,1.98,0,0-3.97,0-3.97Zm-83.37-123.07c3.97,0,5.96-1.98,9.93-5.96,0,0-1.98,0-3.97,1.98-3.97,0-5.96,0-5.96,3.97Zm1.99-428.76v0Zm15.88,375.17c1.99,0,5.96,1.98,7.94,5.95-9.93,0-13.9,5.95-19.85,7.94-1.98,0-1.98-1.99-3.97-1.99,1.98-1.98,13.89-11.91,15.88-11.91Zm-7.94,146.89c-3.97,0-7.94,5.95-5.95,7.94s3.97,5.96,7.94,3.97c3.97,0,5.95-1.98,7.94-3.97,1.98-3.97,3.97-7.94,5.95-11.91-5.95,1.98-11.91,1.98-15.88,3.97Zm-1.98-148.88l1.98,1.98q-1.98,0-1.98-1.98Zm7.94,45.65c-1.98,0-1.98,1.98-1.98,1.98q1.98,0,5.96-3.97s-1.99-1.98-3.97,1.98Zm19.85,131.01c1.99,0,3.97,1.98,5.96,1.98,7.94,0,23.82-11.91,31.76-17.87,7.94-5.95,19.85-13.89,31.76-19.85,1.98,0,1.98-1.98,1.98-3.97l-3.97-1.98c-1.98,3.97-9.92,1.98-11.91,9.93-3.97-3.97-7.94,0-9.93,3.97s-3.97,0-3.97,0c-9.93,3.97-17.87,7.94-27.79,11.91,0,9.93-9.92,9.93-13.9,15.88-5.95,1.98-13.89,7.94-21.83,15.88,9.93-1.98,13.9-5.95,19.85-7.94,11.91-1.98-1.98-5.96,1.98-7.94Zm-15.88-113.15c1.98-1.98,3.97-1.98,5.95-1.98,0,3.97-3.97,1.98-5.95,1.98Zm29.77,59.55h3.97c1.99-1.98,3.97-3.97,5.96-5.95s3.97-5.95,3.97-5.95c-3.97-5.96,0-3.97,1.98-3.97,3.97-1.99,5.95-3.97,9.93-7.94q0-3.97,3.97-5.95c7.94-3.97,13.9-9.93,21.83-15.88,9.93,1.98,13.9-11.91,23.82-13.9,1.99,0,5.96-5.95,7.94-7.94s5.95-1.98,5.95-3.97c7.94-3.97,11.91-9.92,19.85-15.88,7.94-3.97,13.9-9.93,21.83-23.82,0,1.98-1.98,3.97-1.98,5.96,1.98,0,3.97-1.98,5.96-3.97q-1.98,0-5.96,5.96c-11.91,0-19.85,11.91-31.76,15.88,0,5.95-3.97,5.95-7.94,7.94-1.98,1.98-7.94,5.95-5.95,11.91-13.9,1.98-23.82,9.92-31.76,21.83h-5.95c-3.97,0-9.93,0-11.91,5.95-7.94,0-11.91,9.93-19.85,13.9-11.91,5.95-23.82,15.88-37.72,25.8,7.94,0,11.91,0,15.88,1.99,0,1.98-1.98,1.98-3.97,3.97-1.99,0-5.96,0-5.96,3.97,3.97,0,5.96,0,7.94-3.97,0-1.98,1.98-1.98,1.98-3.97,3.97,0,5.95,1.98,7.94-1.99Zm-23.82-63.52s1.98,0,1.98-1.98q0,1.98-1.98,1.98Zm9.92-444.64c-1.98,0-3.97,1.99-7.94,5.96,0,0,1.98,1.98,1.98,3.97,3.97-3.97,3.97-7.94,5.95-9.93Zm-5.95,424.79c1.98,0,1.98,1.98,1.98,1.98q-1.98,0-1.98-1.98Zm19.85,79.4c-3.97,3.97-5.95,3.97-7.94,3.97,0-5.95,3.97-3.97,7.94-3.97Zm7.94-99.25v1.98c-3.97,5.95-7.94,3.97-11.91,1.98,3.97-1.98,5.95-3.97,11.91-3.97Zm-1.98-33.75c0,3.97-1.99,3.97-5.96,3.97,0-3.97,1.98-5.95,3.97-7.94,0,1.98,1.99,3.97,1.99,3.97Zm0,55.58c-1.99,0-1.99,1.98-5.96,1.98,1.98-1.98,1.98-3.97,3.97-5.95,0,1.98,1.99,1.98,1.99,3.97Zm-5.96,77.42l1.98-1.98q0,1.98-1.98,1.98Zm1.98-470.45q1.98,0,3.97-1.98s-1.99,1.98-3.97,1.98Zm1.98,516.11q0,1.98-1.98,1.98c0-1.98,1.98-1.98,1.98-1.98Zm5.96-184.61l1.98,1.98-1.98-1.98Zm9.92-5.96s1.98,0,1.98,1.98l-1.98-1.98Zm1.98,27.79c1.99,0,1.99-1.98,3.97-1.98-1.98,0-1.98,1.98-3.97,1.98Zm5.96-575.66q0,1.98-1.98,3.97c0-3.97,1.98-3.97,1.98-3.97Zm-1.98,573.67l1.98-1.98-1.98,1.98Zm1.98-573.67c1.98,0,1.98-1.98,3.97-1.98-1.98,0-1.98,1.98-3.97,1.98Zm3.97-1.98c0-1.98,1.98-3.97,1.98-3.97,0,0-1.98,1.98-1.98,3.97Zm1.98-3.97c1.98-5.96,5.95-1.98,7.94-3.97,0,5.96-3.97,3.97-7.94,3.97Zm9.93,539.92c0,1.99,1.98,3.97,0,3.97-1.98,3.97-5.96,3.97-9.93,1.98,3.97-1.98,5.95-3.97,9.93-5.96Zm-5.96,25.81q3.97,0,5.96,1.98c0,1.98-1.98,1.98-3.97,1.98,0-1.98-1.98-1.98-1.98-3.97Zm1.98-307.68v0Zm1.99-262.02l1.98-1.98-1.98,1.98Zm228.28-136.97c-9.92,7.94-19.85,15.88-29.78,19.85-9.92,5.95-17.87,7.94-25.8,13.9-1.98,0-3.97,0-3.97,1.98-5.96,7.94-17.87,7.94-23.82,15.88-11.91,1.98-17.87,13.89-29.77,11.91-1.98,5.95-9.93,3.97-11.91,7.94-3.97,5.95-9.92,7.94-13.9,13.9-3.97,3.97-11.91,5.95-15.88,9.92-5.96,3.97-11.91,5.95-15.88,9.93-3.97,1.98-9.93,0-9.93,1.98,0,3.97-15.88,11.91-19.85,13.9-5.95,0-9.92,5.95-13.9,9.92-1.98,1.98-3.97,3.97-7.94,3.97-1.98,0-1.98-1.98-3.97-1.98,0-1.98,1.98-3.97,1.98-3.97,9.92-3.97,15.88-15.88,25.8-19.85,3.97-11.91,15.88-13.9,25.81-23.82,7.94,0,13.89-1.99,15.88-9.93,1.99,0,29.78-13.9,29.78-15.88,7.94-7.94,49.63-33.75,59.55-35.73,3.97-1.98,29.78-15.88,31.76-19.85,11.91-3.97,23.82-9.93,39.7-11.91,1.98,3.97,0,5.95-3.97,7.94Zm-222.32,845.62q0,1.98,1.98,3.97v-5.96l-1.98,1.99Zm11.91-484.34c0,1.98-1.99,1.98-3.97,1.98l-3.97,3.97c5.95,0,7.94,0,7.94-5.95Zm-3.97,478.39c1.98-1.98,3.97-3.97,3.97-3.97q0-1.98-1.99-1.98c-1.98,0-1.98,1.98-1.98,5.95Zm5.96,113.15c-1.98,0-3.97,0-3.97-1.98,1.99,0,1.99,1.98,3.97,1.98Zm0-549.85c0,1.98-1.98,3.97-1.98,3.97,0-3.97,1.98-3.97,1.98-3.97Zm0,549.85c1.98,1.99,1.98,3.97,1.98,3.97-1.98-1.98-1.98-3.97-1.98-3.97Zm0,5.96q1.98,1.98,1.98,3.97-1.98-1.98-1.98-3.97Zm7.94-125.06q-1.98-3.97-3.97-3.97c0,3.97,1.98,3.97,3.97,3.97Zm3.97-119.1c0,1.98-1.98,1.98-1.98,1.98,0-1.98,1.98-1.98,1.98-1.98Zm0-307.68q1.98,0,1.98,1.98s-1.98,0-1.98-1.98Zm5.96,303.71c0,3.97-1.98,3.97-3.97,3.97,0-3.97,0-5.95,1.99-7.94q1.98,1.98,1.98,3.97Zm37.72-234.23c1.98,1.98,5.95,1.98,3.97,5.96,0,0-1.98,1.98-3.97,1.98-3.97-1.98-7.94,1.98-11.91-1.98,0-1.99-1.98-1.99-3.97-1.99-3.97,0-7.94,1.99-11.91,1.99-1.98-1.99-5.95-3.97-11.91-9.93,11.91,1.98,25.8,1.98,39.7,3.97Zm-21.84-69.48s0,1.98-1.98,5.96c-3.97-1.98-7.94-3.97-11.91-3.97,1.98-1.98,3.97-1.98,5.95-1.98h7.94Zm-5.95,305.69c13.9-7.94,25.81-13.9,35.73-19.85-7.94,11.91-17.87,19.85-35.73,19.85Zm5.95,21.83c-1.98,0-3.97,1.99-3.97,5.96,1.98-1.98,3.97-1.98,5.96-1.98-1.99-1.98-1.99-3.97-1.99-3.97Zm15.88-325.54q1.98,0,1.98,3.97s-1.98,0-1.98-3.97Zm7.94,305.69c0,3.97-3.97,1.98-5.96,1.98,0-3.97,3.97-1.98,5.96-1.98Zm-3.97-25.8h3.97s0,1.98-1.98,1.98l-1.98-1.98Zm7.94,21.83c-1.98,0-3.97,1.98-3.97,3.97,0-1.98,1.98-3.97,3.97-3.97Zm3.97-5.95c3.97,0,1.98,3.97,1.98,5.95h-5.95c0-3.97-1.98-7.94,3.97-5.95Zm-1.98-9.93c0-5.95,5.95-3.97,7.94-3.97,3.97,0,1.98,3.97,1.98,5.95-3.97,0-5.96-1.98-9.93-1.98Zm11.91-281.87s1.98,0,3.97,1.98c-1.98,0-3.97,0-3.97-1.98Zm5.95-220.34l1.98,1.98c-1.98,0-1.98-1.98-1.98-1.98Zm1.98,531.98l-1.98,1.98,1.98-1.98Zm7.94-55.58v0Zm3.97-476.4q0,1.98-1.98,1.98,0-1.98,1.98-1.98Zm1.98,208.43c1.98,0,1.98,1.98,1.98,1.98-1.98,0-1.98-1.98-1.98-1.98Zm0,218.35c0-1.98,1.98-1.98,1.98-1.98,0,1.98-1.98,1.98-1.98,1.98Zm7.94-5.95q0,1.98-1.98,1.98c0-1.98,1.98-1.98,1.98-1.98Zm1.98,174.68s1.99,0,1.99,1.98c-1.99,0-1.99-1.98-1.99-1.98Zm7.94-202.47c3.97-3.97,5.95-5.95,9.92-5.95-1.98,3.97-3.97,5.95-9.92,5.95Zm1.98-180.64c0-1.98,1.98-1.98,1.98-1.98,1.98,0,1.98,1.98,1.98,5.95l-3.97-3.97Zm7.94-23.82l-3.97,3.97h3.97c1.99,0,3.97,0,5.96-1.98-3.97-1.98-5.96-1.98-5.96-1.98Zm1.99,381.12q0-3.97,1.98-3.97-1.98,1.98-1.98,3.97Zm1.98-357.3c7.94-3.97,13.89-5.95,23.82-9.92q-9.93,9.92-23.82,9.92Zm0,353.33l1.98-1.98-1.98,1.98Zm9.92-341.42c0-1.98-1.98-1.98-1.98,0-3.97,0-5.95-1.98-5.95-5.95,1.98-3.97,3.97,1.98,5.95,1.98,5.95-1.98,9.93-3.97,15.88-5.96,0,5.96-3.97,5.96-3.97,9.93-3.97,5.95-5.96,1.98-9.93,0Zm-3.97,337.45q-3.97,0-3.97-1.99c1.98,0,1.98,1.99,3.97,1.99Zm0,33.74c-1.98,0-1.98-1.98-1.98-1.98,1.98,0,1.98,1.98,1.98,1.98Zm3.97-365.24s1.98,0,1.98,1.98h-5.95q1.98-1.98,3.97-1.98Zm1.98,325.54c0,1.98,0,3.97-1.98,3.97,0-1.98,1.98-1.98,1.98-3.97Zm0,0c1.98,0,1.98-1.98,3.97-1.98-1.99,0-1.99,1.98-3.97,1.98Zm7.94-15.88c-1.98,1.98-3.97,1.98-3.97,3.97,0-1.99,1.98-1.99,3.97-3.97Zm-1.98,11.91q-1.98,0-1.98-1.98c0,1.98,1.98,1.98,1.98,1.98Zm7.94-61.53c-3.97,0-3.97,1.98-5.95,3.97,0,0,1.98,0,3.97,1.98,0-1.98,1.98-3.97,1.98-5.95Zm-3.97,49.62c0-7.94,1.98-9.92,7.94-9.92,1.98,0,3.97,1.98,7.94,1.98-5.96,3.97-7.94,9.92-15.88,7.94Zm5.95-51.61c1.98,0,1.98,1.99,1.98,3.97,1.98-1.98,3.97-1.98,5.96-3.97q1.98,0,5.95-3.97c-3.97,1.98-5.95,1.98-5.95,1.98-1.98,0-3.97,0-7.94,1.98Zm3.97,146.89c0,1.98-1.98,1.98-1.98,1.98,0-1.98,1.98-1.98,1.98-1.98Zm5.96-3.97c0,3.97-3.97,1.98-5.96,3.97,0-5.96,3.97-3.97,5.96-3.97Zm1.98,0c0-1.98,1.98-1.98,3.97-1.98,0,0-1.98,1.98-3.97,1.98Zm5.95-83.37q0,1.98-1.98,1.98c0-1.98,1.98-1.98,1.98-1.98Zm49.63-97.27h-9.93c-3.97,0-7.94,0-11.91,1.98-3.97,3.97-7.94,7.94-13.9,7.94-3.97,0-5.95,3.97-5.95,7.94-1.98,1.98-5.96,3.97-5.96,9.93,1.98-3.97,3.97-3.97,5.96,0,3.97,1.98,5.95,1.98,7.94-1.98,1.98-1.98,5.95-3.97,9.93-3.97,3.97-3.97,3.97-5.96,5.95-5.96,5.95-5.95,9.93-9.92,17.87-15.88Zm-41.68-250.11c-3.97-7.94,1.98-5.96,3.97-5.96s3.97,1.98,5.95,1.98c0,1.98,3.97,0,3.97,0,0-1.98,0-3.97-1.98-3.97,0-1.98,0-5.95-3.97-3.97s-7.94,1.98-11.91,3.97v13.9c1.99-3.97,3.97-5.95,3.97-5.95Zm3.97,271.95c-1.98,0-1.98-1.99-3.97-3.97q5.95,1.98,7.94,1.98c-1.98,1.99-3.97,1.99-3.97,1.99Zm47.64-267.98c1.98,0,0-3.97,0-3.97-3.97,0-5.96,0-7.94,1.98-3.97,1.98-5.95,5.95-9.92,5.95,0,0-1.99-1.98-5.96-3.97,0-1.98-5.95,0-5.95,0-3.97,3.97-7.94,1.98-9.93,1.98-1.98,1.98-5.95,0-7.94,0s-1.98,1.98-1.98,3.97c0,3.97,11.91,5.95,15.88,5.95,1.98,0,5.95,0,5.95-1.98,0-3.97,1.98-3.97,5.95-3.97s7.94,1.98,15.88,1.98c1.98-1.98,3.97-3.97,5.96-7.94Zm-43.67,331.5s0-1.98,1.98-1.98q0,1.98-1.98,1.98Zm9.93-67.49c0-1.98-1.98-3.97,1.98-5.95l3.97,3.97c-1.98,0-1.98,1.98-5.95,1.98Zm33.75,85.36c-1.99,0-5.96,0-7.94,1.98-3.97,0-5.95,1.98-5.95,0-1.98-1.98,1.98-5.95,3.97-5.95,7.94,1.98,13.9-1.98,21.83-1.98,3.97,0,5.96,0,9.93,1.98-7.94,1.98-13.9,1.98-21.83,3.97Zm7.94-768.2q-1.98,0-1.98-1.99l1.98,1.99Zm13.9-21.83q0-1.99,1.98-1.99l-1.98,1.99Zm1.98,782.1c1.98-1.98,3.97-3.97,9.92-3.97-1.98,1.99-3.97,3.97-5.95,5.96q-1.98-1.98-3.97-1.98Zm45.65-91.31c0,1.98-1.98,3.97-1.98,3.97-7.94,1.98-13.89,7.94-17.87,13.9-1.98,1.98-3.97,1.98-3.97,1.98-3.97,0-5.95-1.98-7.94-7.94,11.91,1.98,13.89-9.92,21.83-13.9,3.97,0,3.97,1.99,5.95,3.97,0-1.98,1.98-5.96,3.97-1.98Zm-31.76,83.37q1.98,0,1.98,1.98l-1.98-1.98Zm21.83-792.02c-3.97,0-3.97-1.99-5.95-3.97,0,0,1.98,0,3.97-1.99,0,1.99,1.98,3.97,1.98,5.96Zm3.97-7.94c1.98,0,1.98,1.98,1.98,1.98l-1.98-1.98Zm1.98,307.68l1.98,1.98-1.98-1.98Zm5.95-329.51l-1.98,1.98,1.98-1.98Zm13.9-7.94c-1.98,3.97-3.97,5.96-9.92,5.96,3.97-3.97,5.95-3.97,9.92-5.96Zm-9.92,13.9l1.98,1.99s-1.98,0-1.98-1.99Zm3.97,742.4l1.98-1.98c1.98,0,1.98,1.98,3.97,1.98-1.98,0-1.98,1.98-3.97,1.98s-1.98-1.98-1.98-1.98Zm5.95-756.29q1.98-1.98,5.96-1.98-1.99,1.98-5.96,1.98Zm1.98,369.21c1.98-1.98,3.97-1.98,3.97-1.98,0,1.98-1.99,1.98-3.97,1.98Zm7.94,381.12c-1.98,0-1.98-1.98-3.97-3.97h3.97l3.97,3.97c-1.98,0-3.97,1.98-3.97,0Zm0-31.76c0,1.98-1.98,1.98-1.98,3.97q0-3.97,1.98-3.97Zm1.98,29.78c5.95-3.97,9.92-7.94,13.9-13.9-1.99,9.92-3.97,11.91-13.9,13.9Zm7.94-353.33c1.98,5.96,5.96,7.94,7.94,9.93,0-7.94-1.98-9.93-7.94-9.93Zm17.87,331.5c-1.98,1.99-3.97,5.96-7.94,7.94,0,1.98-1.98,0-3.97,0,0,0,1.98-1.98,1.98-3.97,1.98-5.96,5.95-7.94,9.92-7.94,0,0,1.98,1.98,0,3.97Zm5.96-732.47c-1.99,1.98-3.97,1.98-7.94,1.98,1.98-3.97,5.95-5.95,9.93-5.95-1.98,0-1.98,3.97-1.98,3.97Zm-3.97-11.91c7.94-1.98,13.9-9.92,21.84-9.92h3.97c-7.94,5.95-13.9,7.94-25.81,9.92Zm3.97,738.43v0Zm47.64-756.29c-1.98,3.97-3.97,5.96-7.94,1.99-1.98-1.99-1.98,0-3.97,1.98-1.99,0-3.97,1.98-7.94,1.98,5.95-5.96,9.93-9.93,15.88-9.93,1.98,0,3.97,1.99,7.94,1.99,5.96,0,5.96-1.99,1.99-5.96,0,0,0-3.97,1.98-3.97h3.97c3.97,3.97,5.95,5.95,7.94,5.95s3.97,0,9.93-1.98c5.95-1.98,11.91-3.97,17.87-3.97,1.98,0,5.95,0,9.92,1.98,3.97,0,7.94,1.98,11.91,1.98,1.98,0,3.97,0,9.93-3.97q1.98,1.98,3.97,1.98c3.97,0,7.94-1.98,11.91-1.98h3.97c1.98,1.98,1.98,3.97,3.97,3.97-1.98,0-3.97,1.98-7.94,1.98-5.96-3.97-5.96-1.98-5.96,1.98s0,5.96-3.97,3.97c-3.97-1.98-5.95-3.97-9.93,0-1.98-1.98-5.95-1.98-9.92-1.98h-7.94c-3.97,0-5.95-1.99-7.94-3.97s-5.95,1.98-5.95,3.97c1.98,1.98,7.94,3.97,0,5.95-9.93,3.97-19.85,5.95-29.78,9.92h-3.97c-3.97,5.96-7.94,5.96-13.9,5.96h-7.94c-3.97,0-5.96,0-11.91,1.98-3.97,1.99-9.93,3.97-15.88,3.97,0,0-1.98,0-3.97-1.98,1.98,0,1.98-3.97,3.97-3.97,7.94-1.99,15.88-3.97,23.82-5.96,5.96-1.98,11.91-3.97,17.87-3.97,3.97,0,5.96-1.98,7.94-5.95,1.98,0,3.97-1.98,5.95-1.98h-5.95c-3.97,1.98-7.94,1.98-9.93-1.99Zm23.82,714.61c-7.94,9.92-19.85,15.88-25.81,29.78h-3.97c-3.97,3.97-11.91,3.97-15.88,9.92-1.98,0-3.97-1.98-3.97-1.98-1.98-5.95,1.98-11.91,5.95-13.9,9.93-3.97,15.88-11.91,21.83-17.87,3.97-1.98,3.97-7.94,9.93-9.92,3.97-1.98,13.9-9.93,15.88-13.9,3.97-3.97,7.94-9.93,13.9-15.88-1.99,15.88-7.94,25.8-17.87,33.75Zm-43.67-53.6c3.97,0,5.95-1.98,7.94-5.95h-5.96c-3.97,0-5.95,0-7.94,3.97,1.98,0,5.95,1.98,5.95,1.98Zm19.85-29.78s1.98-1.98,1.98-3.97c-1.98,0-3.97-1.98-3.97-1.98l-5.95,5.95c3.97,0,5.95,1.98,7.94,0Zm1.98-605.43c-3.97,1.98-7.94,0-5.95-5.95,1.98,1.98,3.97,3.97,5.95,5.95Zm1.98,3.97s0-1.98-1.98-1.98h3.97c0,1.98-1.99,1.98-1.99,1.98Zm11.91-41.68s0-1.98,1.98-3.97c0,1.98,1.98,3.97,1.98,5.95-1.98,0-3.97,0-3.97-1.98Zm1.98,530c1.98-1.98,3.97-3.97,5.96-5.95,0,5.95-1.99,7.94-3.97,9.92,0-1.98-1.98-3.97-1.98-3.97Zm9.93-533.97q0,1.98-1.98,1.98l1.98-1.98Zm11.91-5.96s0,1.99-1.98,1.99c0,0,1.98,0,1.98-1.99Zm1.99,704.68l1.98-1.98-1.98,1.98Zm5.95-3.97s-1.98,0-1.98,1.98v-3.97c1.98,0,1.98,1.98,1.98,1.98Zm13.9-674.91q0-1.98,1.98-1.98s0,1.98-1.98,1.98Zm13.89-35.73c0,1.98-1.98,1.98-1.98,1.98l1.98-1.98Zm15.88-1.98c11.91,0,21.84-3.97,33.75-3.97,3.97,0,7.94,0,11.91,1.98-5.95,1.99-11.91,0-15.88,5.96l-3.97,1.98c-1.98-1.98-3.97-1.98-3.97-1.98h-7.94c-1.98,0-3.97,0-3.97-1.98-5.95,0-11.91,0-17.87-3.97,3.97,1.99,5.95,1.99,7.94,1.99Zm29.78,27.79c-3.97,0-5.95-5.95-9.93-5.95,0,0-1.98,1.98-3.97,1.98v-5.95c5.96,0,11.91,3.97,17.87,5.95v3.97h-3.97Zm17.87-11.91q-1.98-1.98-3.97-1.98c1.98,0,3.97,0,3.97,1.98Zm5.95,1.99c-1.98,0-5.95,1.98-5.95-1.99,1.98,0,5.95-1.98,5.95,1.99Zm0,1.98s1.98,0,1.98,1.98c0,0,0-1.98-1.98-1.98Z"/>
  </g>
</svg>